# xmcd
#
# Track frame offsets: 
#        150
#        10992
#        24372
#        34875
#        45902
#        57385
#        67900
#        79202
#        89815
#        101702
#        114267
#        128470
#        139010
#        151315
#        163942
#        177040
#        187705
#        199530
#        212930
#        226092
#        239320
#        253470
#        265502
#        276025
#
# Disc length: 3837 seconds
#
# Revision: 2
# Processed by: cddbd v1.5.2PL0 Copyright (c) Steve Scherf et al.
# Submitted via: ExactAudioCopy v1.1
#
DISCID=3d0efb18
DTITLE=Various Artist - Kansas City Blues - Disc 3
DYEAR=1997
DGENRE=Blues
TTITLE0=Tommy Douglas - Kickapoo (mono)
TTITLE1=Tommy Douglas - Tea For Tommy (mono)
TTITLE2=Tommy Douglas - If You Don't, Why Don't You (mono)
TTITLE3=Tommy Douglas - I Want You To Be My Guy (mono)
TTITLE4=Tommy Douglas - Douglas Boogie (mono)
TTITLE5=Tommy Douglas - The Killion (mono)
TTITLE6=Tommy Douglas - Leaving Town Blues (mono)
TTITLE7=Tommy Douglas - Lights Out (mono)
TTITLE8=Bus Moten - Turn It Over (mono)
TTITLE9=Bus Moten - That Did It (mono)
TTITLE10=Bus Moten - Best Friend Blues (mono)
TTITLE11=Bus Moten - Baby You Messed Up (mono)
TTITLE12=Walter Brown - You Better Leave My Gal Alone (mono)
TTITLE13=Walter Brown - Lou, Cindy Lou (mono)
TTITLE14=Walter Brown - Squabblin' Woman (mono)
TTITLE15=Walter Brown - I'm Gonna Get Married (mono)
TTITLE16=Walter Brown - New Style Baby (mono)
TTITLE17=Walter Brown - Let's Love Awhile (mono)
TTITLE18=Walter Brown - Nasty Attitude (mono)
TTITLE19=Walter Brown - Slow Down Baby (mono)
TTITLE20=Tiny Kennedy - The Lady With The Black Dress On (mono)
TTITLE21=Tiny Kennedy - Sister Flat-Top (mono)
TTITLE22=Tiny Kennedy - It Ain't No Use (mono)
TTITLE23=Tiny Kennedy - Jumpin' Little Woman (mono)
EXTD=
EXTT0=
EXTT1=
EXTT2=
EXTT3=
EXTT4=
EXTT5=
EXTT6=
EXTT7=
EXTT8=
EXTT9=
EXTT10=
EXTT11=
EXTT12=
EXTT13=
EXTT14=
EXTT15=
EXTT16=
EXTT17=
EXTT18=
EXTT19=
EXTT20=
EXTT21=
EXTT22=
EXTT23=
PLAYORDER=
